<svg width="64" height="64" viewBox="0 0 64 64" xmlns="http://www.w3.org/2000/svg">
  <defs>
    <linearGradient id="a" x1="0" y1="0" x2="1" y2="1">
      <stop offset="0%" stop-color="#14B8A6"/>
      <stop offset="100%" stop-color="#0F8F78"/>
    </linearGradient>
    <linearGradient id="b" x1="0" y1="0" x2="1" y2="1">
      <stop offset="0%" stop-color="#22D3EE"/>
      <stop offset="100%" stop-color="#1196B5"/>
    </linearGradient>
  </defs>
  <rect width="64" height="64" rx="16" fill="#F0FDFA"/>
  <path d="M14 39c5-11 16-18 28-18 3 0 6 .4 9 1.2-5 7-10 11-16 12.8-4 1.3-8 1.7-12 4z" fill="url(#a)"/>
  <path d="M23 24c6-7 14-10 23-9-2 6-6 10-11 12-4.5 1.6-8.8 1.8-12 .5z" fill="url(#b)"/>
  <circle cx="37" cy="37" r="4.2" fill="#0F172A"/>
  <path d="M13 45c9-4 19-4 30 0" stroke="#99F6E4" stroke-width="2" stroke-linecap="round"/>
</svg>
